<svg width="70" height="70" viewBox="0 0 70 70" fill="none" xmlns="http://www.w3.org/2000/svg">
<circle cx="35" cy="35" r="34" stroke="#979797" stroke-width="2"/>
<circle cx="35.5" cy="35.5" r="22.5" fill="#FF7F6E"/>
<path d="M44.9985 35.5006C44.9981 35.598 44.9696 35.6933 44.9164 35.7749C44.8632 35.8565 44.7875 35.921 44.6985 35.9606L26.6985 43.9606C26.6358 43.9891 26.5673 44.0028 26.4985 44.0006C26.4268 44.0001 26.356 43.9848 26.2906 43.9555C26.2252 43.9263 26.1665 43.8837 26.1185 43.8306C26.0495 43.7495 26.0083 43.6484 26.0011 43.5422C25.9939 43.436 26.021 43.3302 26.0785 43.2406L30.2185 36.6106L36.4985 35.5006L30.2185 34.3906L26.0785 27.7606C26.021 27.6709 25.9939 27.5652 26.0011 27.459C26.0083 27.3528 26.0495 27.2517 26.1185 27.1706C26.1894 27.091 26.2835 27.0357 26.3876 27.0123C26.4916 26.989 26.6003 26.9989 26.6985 27.0406L44.6985 35.0406C44.7875 35.0802 44.8632 35.1446 44.9164 35.2263C44.9696 35.3079 44.9981 35.4031 44.9985 35.5006Z" fill="white"/>
</svg>
