<svg width="34" height="26" viewBox="0 0 34 26" fill="none" xmlns="http://www.w3.org/2000/svg">
<path d="M0 16.3897C0 22.4986 4.00428 26 8.4454 26C12.5225 26 16.0171 22.4986 16.0171 18.1777C16.0171 14.0057 13.1777 11.2493 9.68308 11.2493C8.88223 11.2493 8.15418 11.3983 7.79015 11.5473C8.73662 8.71633 12.0857 5.4384 14.4154 4.39542L9.10064 0C3.42184 4.09742 0 9.83381 0 16.3897ZM17.9829 16.3897C17.9829 22.4986 21.9872 26 26.4283 26C30.5054 26 34 22.4986 34 18.1777C34 14.0057 31.1606 11.2493 27.6659 11.2493C26.8651 11.2493 26.137 11.3983 25.773 11.5473C26.7195 8.71633 30.0685 5.4384 32.3983 4.39542L27.0835 0C21.4047 4.09742 17.9829 9.83381 17.9829 16.3897Z" fill="#FF7F6E"/>
</svg>
